<?xml version="1.0" standalone="no"?>
<!DOCTYPE svg PUBLIC "-//W3C//DTD SVG 20010904//EN"
 "http://www.w3.org/TR/2001/REC-SVG-20010904/DTD/svg10.dtd">
<svg version="1.0" xmlns="http://www.w3.org/2000/svg"
 width="512.000000pt" height="512.000000pt" viewBox="0 0 512.000000 512.000000"
 preserveAspectRatio="xMidYMid meet">
<metadata>
Created by potrace 1.14, written by Peter Selinger 2001-2017
</metadata>
<g transform="translate(0.000000,512.000000) scale(0.100000,-0.100000)"
fill="#000000" stroke="none">
<path d="M2389 5016 c-2 -2 -35 -6 -74 -10 -38 -3 -79 -8 -90 -10 -11 -2 -40
-7 -65 -10 -275 -38 -685 -192 -895 -336 -24 -17 -46 -30 -50 -30 -3 0 -11 -4
-18 -10 -7 -5 -52 -39 -102 -76 -529 -393 -864 -954 -970 -1624 -25 -162 -26
-519 -2 -687 18 -122 50 -273 67 -319 6 -16 12 -31 12 -34 3 -27 61 -194 95
-275 308 -726 972 -1273 1748 -1441 11 -2 61 -11 110 -19 50 -7 106 -17 125
-20 19 -4 125 -8 235 -9 240 -4 342 5 560 50 597 123 1152 493 1507 1005 239
345 390 756 426 1164 13 142 6 452 -12 575 -106 721 -502 1338 -1114 1734
-282 183 -676 327 -987 362 -27 3 -54 8 -59 11 -9 6 -441 15 -447 9z"/>
</g>
</svg>
